<svg version="1.1" xmlns="http://www.w3.org/2000/svg" xmlns:xlink="http://www.w3.org/1999/xlink" width="388" height="354" viewBox="-644,-425,388,354"><defs><clipPath id="clip-1"><path d="M-547.418,-181.713c24,15.501 56.625,28.752 83.875,27.75c26.602,-0.979 56.256,-3.688 76.157,-25.427c3.466,2.883 8.373,5.426 15.217,6.176c18.252,2.001 35.502,-5.748 39.501,-21.498c3.999,-15.75 3.249,-21 0.249,-23.25c-3,-2.25 -6.498,-3.501 -6.498,-3.501c0,0 3.996,-5.748 -1.002,-9.249c-2.593,-1.816 -5.587,-3.281 -8.394,-4.04c2.25,-10.45 3.583,-23.602 1.395,-40.711c-6.999,-54.75 -38.25,-66.751 -49.5,-73c5.25,-7.25 3.003,-15.249 0.501,-18.999c-8.25,7.25 -15,10.998 -24.501,10.749c-9.501,-0.249 -46.499,-10.499 -72,3.501c0,0 -16.589,7.863 -37,27.75c-9.75,9.5 -18.747,48.107 -21.5,52.749c-6.473,10.917 -16.018,12.836 -21.75,31.75c-7.5,24.75 10.48,49.711 25.25,59.25z" id="SVGID_2_" fill="none" stroke="none" stroke-width="1"/></clipPath><clipPath id="clip-2"><path d="M-547.418,-181.713c24,15.501 56.625,28.752 83.875,27.75c26.602,-0.979 56.256,-3.688 76.157,-25.427c3.466,2.883 8.373,5.426 15.217,6.176c18.252,2.001 35.502,-5.748 39.501,-21.498c3.999,-15.75 3.249,-21 0.249,-23.25c-3,-2.25 -6.498,-3.501 -6.498,-3.501c0,0 3.996,-5.748 -1.002,-9.249c-2.593,-1.816 -5.587,-3.281 -8.394,-4.04c2.25,-10.45 3.583,-23.602 1.395,-40.711c-6.999,-54.75 -38.25,-66.751 -49.5,-73c5.25,-7.25 3.003,-15.249 0.501,-18.999c-8.25,7.25 -15,10.998 -24.501,10.749c-9.501,-0.249 -46.499,-10.499 -72,3.501c0,0 -16.589,7.863 -37,27.75c-9.75,9.5 -18.747,48.107 -21.5,52.749c-6.473,10.917 -16.018,12.836 -21.75,31.75c-7.5,24.75 10.48,49.711 25.25,59.25z" id="SVGID_2_" fill="none" stroke="none" stroke-width="1"/></clipPath></defs><g data-paper-data="{&quot;id&quot;:2,&quot;isDefaultLayer&quot;:true}" id="Default layer" fill="none" fill-rule="nonzero" stroke="none" stroke-width="none" stroke-linecap="none" stroke-linejoin="none" stroke-miterlimit="10" stroke-dasharray="" stroke-dashoffset="0" font-family="none" font-weight="none" font-size="none" text-anchor="none" style="mix-blend-mode: normal"><g id="レイヤー_8" fill="#000000" stroke="none" stroke-width="1" stroke-linecap="butt" stroke-linejoin="miter" font-family="-apple-system, BlinkMacSystemFont, &quot;Segoe UI&quot;, Roboto, Helvetica, Arial, sans-serif, &quot;Apple Color Emoji&quot;, &quot;Segoe UI Emoji&quot;, &quot;Segoe UI Symbol&quot;" font-weight="400" font-size="14" text-anchor="start"/><g id="レイヤー_10" fill="#000000" stroke="none" stroke-width="1" stroke-linecap="butt" stroke-linejoin="miter" font-family="-apple-system, BlinkMacSystemFont, &quot;Segoe UI&quot;, Roboto, Helvetica, Arial, sans-serif, &quot;Apple Color Emoji&quot;, &quot;Segoe UI Emoji&quot;, &quot;Segoe UI Symbol&quot;" font-weight="400" font-size="14" text-anchor="start"/><g id="レイヤー_18" fill="#000000" stroke="none" stroke-width="1" stroke-linecap="butt" stroke-linejoin="miter" font-family="-apple-system, BlinkMacSystemFont, &quot;Segoe UI&quot;, Roboto, Helvetica, Arial, sans-serif, &quot;Apple Color Emoji&quot;, &quot;Segoe UI Emoji&quot;, &quot;Segoe UI Symbol&quot;" font-weight="400" font-size="14" text-anchor="start"/><g data-paper-data="{&quot;origPos&quot;:null}" id="レイヤー_11" fill="#e8f0f2" stroke="none" stroke-width="1" stroke-linecap="butt" stroke-linejoin="miter"><path d="M-339.919,-166.464c0,32.168 -50.2,58.245 -112.125,58.245c-61.925,0 -112.125,-26.077 -112.125,-58.245c0,-32.171 50.2,-58.248 112.125,-58.248c61.925,0 112.125,26.077 112.125,58.248z"/></g><g data-paper-data="{&quot;origPos&quot;:null}" id="レイヤー_7" fill="none" stroke="#c71c52" stroke-width="6" stroke-linecap="round" stroke-linejoin="round"><path d="M-486.667,-159.963l-33,17.25l-4.75,-12.999"/><path d="M-538.168,-180.963l-30,15l-7.5,-13.998"/></g><g data-paper-data="{&quot;origPos&quot;:null}" id="レイヤー_12" stroke="none" stroke-width="1" stroke-linecap="butt" stroke-linejoin="miter"><g><path d="M-337.692,-210.67c-0.202,-0.141 -0.612,-0.448 -0.639,-0.454l-0.387,-0.249c-0.331,-0.205 -0.688,-0.416 -1.066,-0.615c-0.378,-0.199 -0.771,-0.396 -1.166,-0.577l-0.999,-0.422l-4.359,-13.611c-0.237,0.352 -0.111,0.173 -0.141,0.211l0.035,-0.067l0.053,-0.126c0.015,-0.038 -0.035,0.056 -0.047,0.445c-0.006,0.363 0.1,1.049 0.401,1.635c0.284,0.589 0.674,0.973 0.841,1.099c0.053,0.05 0,0.006 0.161,0.114l-0.516,-0.343c-0.398,-0.278 -0.571,-0.369 -0.756,-0.48c-0.378,-0.231 -0.97,-0.563 -1.453,-0.8c-1.014,-0.507 -2.048,-0.911 -2.933,-1.151l-0.079,-0.023c-4.614,-1.269 -7.38,-5.941 -6.369,-10.562c2.265,-10.257 3.094,-20.279 2.162,-30.445c-0.211,-2.527 -0.563,-5.076 -0.964,-7.578l-0.691,-3.93l-0.782,-3.844c-1.104,-5.115 -2.476,-10.129 -4.184,-14.959c-3.398,-9.656 -8.168,-18.601 -14.613,-25.831c-3.214,-3.624 -6.835,-6.804 -10.849,-9.557c-2.01,-1.381 -4.119,-2.654 -6.357,-3.885l-7.4,-3.92c-4.315,-2.285 -5.959,-7.636 -3.674,-11.952c0.173,-0.327 0.363,-0.637 0.568,-0.933l0.188,-0.262c0.996,-1.406 1.441,-2.729 1.479,-4.293c0.015,-0.776 -0.091,-1.611 -0.316,-2.426c-0.211,-0.791 -0.601,-1.629 -0.858,-2.004v-0.001l13.427,1.765c-3.791,2.862 -7.954,5.72 -12.94,8.01c-4.966,2.303 -10.878,3.432 -16.222,3.211l-1.002,-0.045l-0.592,-0.028l-0.41,-0.038c-0.853,-0.073 -1.462,-0.164 -2.098,-0.258c-1.236,-0.192 -2.373,-0.407 -3.492,-0.627l-6.483,-1.308c-4.248,-0.82 -8.44,-1.564 -12.639,-2.143c-16.737,-2.246 -33.809,-1.879 -48.038,6.727c-7.38,4.018 -14.347,9.089 -20.974,14.48c-3.318,2.704 -6.53,5.544 -9.667,8.468c-0.743,0.719 -1.633,1.521 -2.254,2.172c-0.434,0.469 -1.053,1.269 -1.554,2.019c-1.055,1.557 -2.021,3.346 -2.88,5.213c-3.444,7.54 -5.818,15.918 -7.821,24.343c-0.946,4.255 -1.857,8.508 -2.656,12.938l-0.674,3.384c-0.277,1.182 -0.444,2.309 -0.955,3.886c-0.146,0.423 -0.286,0.851 -0.647,1.567c-0.062,0.107 0.051,-0.069 -0.154,0.272l-0.021,0.047l-0.041,0.095l-0.083,0.19l-0.164,0.382c-0.122,0.268 -0.195,0.476 -0.357,0.794l-0.521,1.021c-0.7,1.361 -1.337,2.436 -2.017,3.627l-0.001,0.003c-0.507,0.772 -1.194,1.356 -1.969,1.736l-2.193,1.062c-4.957,2.399 -9.778,4.79 -13.838,7.506c-4.063,2.602 -7.329,5.766 -8.256,7.901c-0.261,0.519 -0.409,0.964 -0.494,1.377c-0.041,0.205 -0.056,0.41 -0.079,0.615l-0.009,1.104c0.001,2.019 0.243,4.087 0.573,5.733c0.757,3.36 1.756,5.584 4.689,8.628h0.001l1.068,0.703c1.868,1.228 3.04,3.149 3.396,5.191c1.263,7.389 4.819,14.769 9.583,21.223c2.379,3.234 5.115,6.24 8.104,8.757c0.743,0.63 1.497,1.236 2.26,1.799c0.754,0.565 1.488,1.052 2.509,1.726c1.882,1.248 3.621,2.347 5.522,3.519c14.903,9.188 31.279,16.321 48.098,20.312c8.421,1.954 16.894,3.105 25.296,2.748c8.997,-0.384 17.833,-0.964 26.385,-2.458c8.528,-1.459 16.784,-3.788 24.117,-7.477c7.354,-3.639 13.696,-8.689 18.545,-14.871c2.607,-3.325 7.274,-4.078 10.772,-1.875l1.62,1.031l0.006,0.003c1.881,1.553 4.075,2.704 6.604,3.407c1.219,0.354 2.689,0.624 3.902,0.744l1.4,0.132l1.063,0.062c0.703,0.029 1.526,0.067 2.279,0.05c6.135,-0.012 12.196,-1.456 16.793,-4.313c2.3,-1.418 4.204,-3.158 5.616,-5.139c0.706,-0.993 1.295,-2.045 1.764,-3.164c0.243,-0.554 0.439,-1.131 0.618,-1.723l0.267,-0.967l0.334,-1.345c0.817,-3.372 1.564,-6.873 1.904,-9.876c0.167,-1.471 0.205,-2.892 0.114,-3.583c-0.029,-0.343 -0.105,-0.431 0.026,-0.111c0.1,0.293 0.639,1.04 1.122,1.371zM-327.02,-225.163c1.998,1.444 3.703,3.741 4.544,5.754c0.888,2.036 1.21,3.806 1.392,5.32c0.322,3.041 0.12,5.388 -0.108,7.641c-0.519,4.447 -1.38,8.291 -2.317,12.205l-0.346,1.386l-0.478,1.74c-0.36,1.207 -0.779,2.402 -1.277,3.568c-0.984,2.338 -2.232,4.579 -3.703,6.639c-2.941,4.131 -6.735,7.491 -10.813,10.002c-8.224,5.036 -17.37,6.938 -26.177,6.996c-1.122,0.015 -2.174,-0.023 -3.34,-0.076l-1.746,-0.114l-1.397,-0.129c-2.517,-0.255 -4.749,-0.68 -7.137,-1.348c-4.693,-1.304 -9.319,-3.645 -13.21,-6.885l-0.006,-0.006l12.393,-0.844c-3.759,3.577 -7.787,6.855 -12.088,9.642c-4.321,2.754 -8.854,5.08 -13.477,6.981c-9.267,3.826 -18.841,5.906 -28.263,7.257c-9.439,1.26 -18.797,1.816 -27.976,2.112c-9.795,0.428 -19.535,-0.718 -28.843,-2.78c-9.33,-2.08 -18.362,-5.021 -27.097,-8.584c-8.729,-3.571 -17.278,-7.544 -25.503,-12.182c-2.016,-1.137 -4.172,-2.391 -6.126,-3.583c-0.899,-0.545 -2.095,-1.269 -3.189,-2.024c-1.1,-0.744 -2.152,-1.523 -3.173,-2.326c-4.069,-3.229 -7.683,-6.809 -10.98,-10.682c-6.532,-7.767 -11.676,-16.878 -14.53,-27.246l4.462,5.895l-0.003,-0.003c-3.725,-1.324 -7.469,-3.68 -10.501,-6.92c-3.066,-3.211 -5.313,-7.207 -6.624,-11.18c-1.381,-4.017 -1.857,-7.869 -1.985,-11.751l-0.016,-0.554l-0.007,-0.278l0.01,-0.598l0.1,-1.893c0.127,-1.266 0.322,-2.522 0.617,-3.759c0.587,-2.464 1.519,-4.796 2.651,-6.876c2.269,-4.21 5.322,-7.279 8.301,-9.784c3.012,-2.508 6.163,-4.343 9.25,-5.947c6.243,-3.088 12.476,-5.055 18.759,-6.272l-4.162,2.796l0.001,-0.001c0.709,-0.502 1.437,-1.143 1.979,-1.586c0.384,-0.125 1.63,-1.898 1.417,-1.238c0.833,-1.039 1.833,-3.262 2.71,-5.13c1.846,-3.924 3.475,-8.057 5.203,-12.146c3.387,-8.232 6.56,-16.541 10.796,-24.772c1.087,-2.054 2.237,-4.116 3.655,-6.176c0.743,-1.052 1.453,-2.001 2.525,-3.125l2.459,-2.407c3.233,-3.089 6.552,-6.097 9.992,-8.971c6.876,-5.769 14.139,-11.033 21.939,-15.779c0.987,-0.587 1.98,-1.162 3.026,-1.726l2.994,-1.6c2.136,-1.096 4.339,-2.03 6.573,-2.839c4.471,-1.623 9.067,-2.687 13.658,-3.473c9.209,-1.547 18.435,-1.496 27.485,-1.056c4.526,0.242 9.023,0.659 13.441,1.134l6.51,0.643c1.052,0.091 2.086,0.173 3.026,0.215c0.457,0.019 0.938,0.028 1.175,0.015l0.413,-0.006c-0.076,-0.012 0.164,-0.018 0.229,-0.025l0.642,-0.045c3.422,-0.249 6.249,-1.269 9.053,-3.028c2.821,-1.729 5.575,-4.365 8.379,-7.25c3.234,-3.325 8.555,-3.4 11.88,-0.166c0.349,0.34 0.662,0.702 0.938,1.081l0.609,0.851l0.009,0.009c1.597,2.438 2.528,4.737 3.226,7.182c0.671,2.43 1.011,4.963 0.967,7.553c-0.041,5.178 -1.925,10.501 -4.898,14.527l-2.918,-13.146l7.336,3.885c2.634,1.447 5.294,3.047 7.866,4.815c5.156,3.529 9.952,7.74 14.112,12.437c8.379,9.41 14.165,20.525 18.138,31.8c1.998,5.654 3.56,11.388 4.802,17.139l0.879,4.326l0.756,4.282c0.48,2.987 0.885,5.949 1.14,8.962c1.134,11.994 0.056,24.39 -2.496,35.827l-6.448,-10.582c2.294,0.633 4.336,1.462 6.27,2.426c0.993,0.495 1.846,0.961 2.874,1.591l1.327,0.847l0.516,0.343c0.498,0.34 0.765,0.557 1.151,0.855c1.441,1.163 2.93,2.824 3.949,4.893c1.034,2.063 1.494,4.403 1.468,6.413c-0.006,2.042 -0.404,3.768 -0.914,5.291c-0.258,0.762 -0.554,1.474 -0.885,2.159l-0.536,1.028c-0.229,0.398 -0.316,0.574 -0.782,1.269l-4.359,-13.608c1.072,0.396 1.641,0.65 2.417,1.002c0.727,0.331 1.438,0.683 2.15,1.063c0.712,0.378 1.424,0.788 2.142,1.236l1.16,0.762l0.87,0.618z" fill="#fe6e75"/><path d="M-332.419,-217.962c-3,-2.25 -6.498,-3.501 -6.498,-3.501c0,0 3.996,-5.748 -1.002,-9.249c-2.593,-1.816 -5.587,-3.281 -8.394,-4.04c2.25,-10.45 4.119,-23.681 1.395,-40.711c-9,-56.25 -38.25,-66.751 -49.5,-73c5.25,-7.25 3.003,-15.249 0.501,-18.999c-8.25,7.25 -15,10.998 -24.501,10.749c-9.501,-0.249 -46.499,-10.499 -72,3.501c0,0 -16.589,7.863 -37,27.75c-9.75,9.5 -18.747,48.107 -21.5,52.749c-1.034,1.745 -2.153,3.246 -3.318,4.638c-13.44,4.296 -31.182,12.564 -31.182,26.363c0,12.747 5.531,19.339 12.201,22.978c3.727,16.292 15.527,30.39 25.799,37.022c24,15.501 56.625,28.752 83.875,27.75c26.602,-0.979 56.256,-3.688 76.157,-25.427c3.466,2.883 8.373,5.426 15.217,6.176c18.252,2.001 35.502,-5.748 39.501,-21.498c3.999,-15.75 3.249,-21.001 0.249,-23.251z" fill="#fed26f"/></g></g><g data-paper-data="{&quot;origPos&quot;:null}" id="レイヤー_6" stroke="none" stroke-width="1" stroke-linecap="butt" stroke-linejoin="miter"><path d="M-545.293,-270.588c-12.375,3 -40.125,11.625 -40.125,28.875c0,17.25 10.125,23.25 19.5,25.875c9.375,2.625 20.625,-54.75 20.625,-54.75z" fill="#ffbd6e"/><path d="M-332.419,-217.962c-3,-2.25 -6.498,-3.501 -6.498,-3.501c0,0 3.996,-5.748 -1.002,-9.249c-2.593,-1.816 -5.587,-3.281 -8.394,-4.04c2.25,-10.45 3.583,-23.602 1.395,-40.711c-6.999,-54.75 -38.25,-66.751 -49.5,-73c5.25,-7.25 3.003,-15.249 0.501,-18.999c-8.25,7.25 -15,10.998 -24.501,10.749c-7.143,-0.188 -29.824,-6.021 -51.478,-2.96c-40.024,-5.982 -55.682,-2.004 -60.022,-1.787c-5,0.25 -6,0.5 -10.5,3c-4.5,2.5 -12.322,17.818 -17.001,29.75c-5,12.75 -6,19.499 -6,23c0,3.501 4,9.25 9.501,11.5c2.093,0.857 6.401,1.348 11.629,1.522c-3.081,9.608 -5.44,17.969 -6.63,19.976c-6.473,10.917 -16.018,12.836 -21.75,31.75c-7.5,24.75 10.479,49.711 25.25,59.25c24,15.501 56.625,28.752 83.875,27.75c26.602,-0.979 56.256,-3.688 76.157,-25.427c3.466,2.883 8.373,5.426 15.217,6.176c18.252,2.001 35.502,-5.748 39.501,-21.498c3.999,-15.75 3.25,-21.001 0.25,-23.251z" fill="#ffed9c"/></g><g data-paper-data="{&quot;origPos&quot;:null}" id="レイヤー_6のコピー" stroke="none" stroke-width="1" stroke-linecap="butt" stroke-linejoin="miter"><path d="M-545.293,-270.588c-12.375,3 -40.125,11.625 -40.125,28.875c0,17.25 10.125,23.25 19.5,25.875c9.375,2.625 20.625,-54.75 20.625,-54.75z" fill="#ffbd6e"/><path d="M-547.418,-181.713c24,15.501 56.625,28.752 83.875,27.75c26.602,-0.979 56.256,-3.688 76.157,-25.427c3.466,2.883 8.373,5.426 15.217,6.176c18.252,2.001 35.502,-5.748 39.501,-21.498c3.999,-15.75 3.249,-21 0.249,-23.25c-3,-2.25 -6.498,-3.501 -6.498,-3.501c0,0 3.996,-5.748 -1.002,-9.249c-2.593,-1.816 -5.587,-3.281 -8.394,-4.04c2.25,-10.45 3.583,-23.602 1.395,-40.711c-6.999,-54.75 -38.25,-66.751 -49.5,-73c5.25,-7.25 3.003,-15.249 0.501,-18.999c-8.25,7.25 -15,10.998 -24.501,10.749c-9.501,-0.249 -46.499,-10.499 -72,3.501c0,0 -16.589,7.863 -37,27.75c-9.75,9.5 -18.747,48.107 -21.5,52.749c-6.473,10.917 -16.018,12.836 -21.75,31.75c-7.5,24.75 10.48,49.711 25.25,59.25z" fill="#ffed9c"/></g><g data-paper-data="{&quot;origPos&quot;:null}" id="レイヤー_19" fill="none" stroke="#fe6e75" stroke-width="3" stroke-linecap="round" stroke-linejoin="round"><path d="M-369.793,-222.963c6,-11.063 18.19,-13.564 32.25,-12.938"/></g><g data-paper-data="{&quot;origPos&quot;:null}" id="レイヤー_20" fill="none" stroke="#fe6e75" stroke-width="6" stroke-linecap="round" stroke-linejoin="round"><path d="M-533.293,-376.338l-2.25,-9"/><path d="M-552.793,-368.088l-9.375,-7.875"/><path d="M-562.168,-354.588l-6.75,-2.25"/></g><g data-paper-data="{&quot;origPos&quot;:null}" id="レイヤー_16" stroke-linecap="butt" stroke-linejoin="miter"><g><g clip-path="url(#clip-1)"><path d="M-390.793,-261.588c12.75,2.625 40.875,13.875 48,21" fill="#ffed9c" stroke="#a69c8a" stroke-width="9"/></g><g clip-path="url(#clip-2)"><path d="M-341.293,-251.838c0,0 -12,-33.375 -27.375,-45" fill="#ffed9c" stroke="#a69c8a" stroke-width="9"/></g></g></g><g data-paper-data="{&quot;origPos&quot;:null}" id="レイヤー_2" stroke="none" stroke-width="1" stroke-linecap="butt" stroke-linejoin="miter"><path d="M-446.17,-282.963c-4.5,1.75 -10.248,10.248 -12.996,20.25c-2.752,10.002 -5,24.501 0,26.751c4.998,2.25 12,-5.001 17.25,-17.751c4.066,-9.876 4.746,-17.75 4.746,-17.75c0,0 -4.998,-4.75 -5.25,-6c-0.246,-1.249 -3.75,-5.5 -3.75,-5.5z" fill="#82808c"/><path d="M-514.167,-291.211c0,0 -4.5,6.001 -6.25,12.25c-1.75,6.249 -5,23.748 0,24.999c5,1.251 11.499,-10.5 15.5,-21.75c4.001,-11.25 4.251,-16.749 4.75,-20.75c-4.25,2.75 -4.25,3.001 -7.5,4c-3.25,0.999 -6.5,1.251 -6.5,1.251z" fill="#82808c"/><path d="M-526.856,-240.087c0.451,-3.161 11.625,-10.125 22.875,-7.125c11.25,3 17.625,18 16.688,20.625c-0.937,2.625 -4.313,1.688 -6.375,1.313c-2.062,-0.375 -11.063,-1.875 -18.938,-4.875c-7.875,-3 -14.813,-6 -14.25,-9.938z" fill="#ff8d70"/></g><g data-paper-data="{&quot;origPos&quot;:null}" id="レイヤー_15" fill="#ffd182" stroke="none" stroke-width="1" stroke-linecap="butt" stroke-linejoin="miter"><path d="M-430.666,-237.74c-10.96,-2.089 -15.513,0.343 -16.345,4.11c-0.829,3.771 3.879,9.938 13.02,12.337c9.144,2.396 16.623,0.343 17.73,-4.456c1.108,-4.796 -7.201,-10.62 -14.405,-11.991z"/><path d="M-539.396,-267.701c-8.48,-1.34 -11.818,1.044 -12.243,4.447c-0.423,3.403 3.513,8.679 10.623,10.387c7.109,1.705 12.702,-0.486 13.28,-4.816c0.579,-4.333 -6.086,-9.137 -11.66,-10.018z"/></g><g data-paper-data="{&quot;origPos&quot;:null}" id="レイヤー_13" fill="none" stroke="#c71c52" stroke-width="6" stroke-linecap="round" stroke-linejoin="round"><path d="M-532.417,-150.213l12.75,7.5l7.749,-12"/><path d="M-581.167,-171.213l12.999,5.25l2.25,-12"/></g><g data-paper-data="{&quot;origPos&quot;:null}" id="レイヤー_4" stroke-linecap="butt" stroke-linejoin="miter"><g><path d="M-559.418,-328.711c4.679,-11.931 12.501,-27.249 17.001,-29.75c4.5,-2.501 5.5,-2.75 10.5,-3c5,-0.25 25,-5.5 80,5.249c55,10.749 77.499,36.501 81,39.501c3.501,3 9.003,11.75 7.251,21c-1.752,9.25 -18.999,33.751 -24,37.501c-5.001,3.75 -4.503,6.249 -17.502,1.248c-12.999,-4.998 -31.998,-16.749 -36.999,-25.25c-5.001,-8.501 -10.749,-19.501 -13.5,-23.251c-2.751,-3.75 -9.498,-8.499 -12.75,-9.249c-3.249,-0.75 -8.75,2 -13.25,3.75c-8.008,3.116 -25.79,15.267 -35.25,16.75c-12.75,2 -33.5,2.25 -39,0c-5.5,-2.25 -9.501,-8 -9.501,-11.5c0,-3.5 1,-10.249 6,-22.999z" fill="none" stroke="#a8b0ad" stroke-width="9"/><path d="M-559.418,-328.711c4.679,-11.931 12.501,-27.249 17.001,-29.75c4.5,-2.501 5.5,-2.75 10.5,-3c5,-0.25 25,-5.5 80,5.249c55,10.749 77.499,36.501 81,39.501c3.501,3 9.003,11.75 7.251,21c-1.752,9.25 -18.999,33.751 -24,37.501c-5.001,3.75 -4.503,6.249 -17.502,1.248c-12.999,-4.998 -31.998,-16.749 -36.999,-25.25c-5.001,-8.501 -10.749,-19.501 -13.5,-23.251c-2.751,-3.75 -9.498,-8.499 -12.75,-9.249c-3.249,-0.75 -8.75,2 -13.25,3.75c-8.008,3.116 -25.79,15.267 -35.25,16.75c-12.75,2 -33.5,2.25 -39,0c-5.5,-2.25 -9.501,-8 -9.501,-11.5c0,-3.5 1,-10.249 6,-22.999z" fill="#ffffff" stroke="none" stroke-width="1"/></g></g><g data-paper-data="{&quot;origPos&quot;:null}" id="レイヤー_14" stroke="none" stroke-width="1" stroke-linecap="butt" stroke-linejoin="miter"><path d="M-372.292,-302.243c-5.669,-8.039 -13.896,-14.726 -22.228,-19.778c-10.629,-6.442 -28.811,-14.593 -40.79,-17.996c-3.636,-1.033 -6.29,1.255 -7.271,4.443c-1.333,4.323 -2.669,8.646 -4.002,12.968c-0.835,2.713 -2.508,6.085 -1.356,8.82c1.535,3.647 13.181,20.067 14.467,23.128c0.876,2.077 3.56,3.119 5.399,4.173c7.822,4.493 28.978,16.636 31.731,18.217c2.854,1.638 5.54,0.973 7.277,-1.819c4.377,-7.04 8.757,-14.08 13.137,-21.122c1.776,-2.857 6.068,-7.568 3.636,-11.034c-0.393,-0.557 1.037,1.478 0,0z" fill="#ff76bc"/><path d="M-527.606,-351.337c-3.904,0.338 -9.526,0.814 -11.714,4.649c-3.388,5.938 -12.743,29.427 -13.286,33.475c-0.313,2.338 -0.539,3.69 1.5,5.5c2.013,1.786 28.657,1.969 31.125,1.375c4.232,-1.015 11.414,-5.257 15.375,-7c4.282,-1.885 5.033,-2.49 9.315,-4.374c2.193,-0.965 5.477,-2.219 6.374,-4.125c1,-2.125 7.293,-15.765 8.875,-23.001c0.699,-3.196 -1.623,-4.377 -3.281,-4.781c-0.531,-0.129 -30.89,-2.879 -44.283,-1.718z" fill="#96e7fd"/></g><g id="レイヤー_17" fill="#000000" stroke="none" stroke-width="1" stroke-linecap="butt" stroke-linejoin="miter" font-family="-apple-system, BlinkMacSystemFont, &quot;Segoe UI&quot;, Roboto, Helvetica, Arial, sans-serif, &quot;Apple Color Emoji&quot;, &quot;Segoe UI Emoji&quot;, &quot;Segoe UI Symbol&quot;" font-weight="400" font-size="14" text-anchor="start"/></g></svg>